<svg version="1.1" xmlns="http://www.w3.org/2000/svg" xmlns:xlink="http://www.w3.org/1999/xlink" style="display:none;" width="20px" height="20px" viewBox="0 0 20 20">
    <symbol id="icon-wrench">
        <path d="M19.6,16l-9-7.7c0.4-0.8,0.7-1.7,0.7-2.6C11.3,2.5,8.7,0,5.6,0C5.1,0,4.5,0.1,4,0.2l3.2,3.2c0.5,0.5,0.5,1.3,0,1.8l-2,2
	C4.8,7.7,4,7.7,3.5,7.2L0.2,4C0.1,4.5,0,5.1,0,5.6c0,3.1,2.5,5.6,5.6,5.6c1,0,1.9-0.2,2.6-0.7l7.7,9c0.4,0.5,1.2,0.6,1.7,0.1l2-2
	C20.1,17.2,20.1,16.4,19.6,16L19.6,16z"/>
    </symbol>
</svg>
